<svg xmlns="http://www.w3.org/2000/svg" width="168" height="168" fill="none" viewBox="0 0 168 168"><g filter="url(#filter0_d_50_9031)"><path fill="#fff" stroke="#fff" stroke-width="17.067" d="M63.8401 29.2667H104.16C117.858 29.2667 122.584 29.3767 127.581 30.9104C131.962 32.578 135.422 36.0378 137.09 40.4194C138.623 45.4152 138.733 50.1428 138.733 63.8402V104.16C138.733 117.858 138.623 122.584 137.09 127.581C135.422 131.963 131.962 135.422 127.581 137.089C122.584 138.623 117.859 138.733 104.16 138.733H63.8401C50.1402 138.733 45.4148 138.623 40.4193 137.089C36.0383 135.422 32.5781 131.963 30.9103 127.581C29.3766 122.584 29.2667 117.858 29.2667 104.16V63.8402C29.2667 50.1429 29.3767 45.4153 30.9103 40.4194C32.5778 36.0377 36.0377 32.5779 40.4194 30.9103C45.4152 29.3767 50.1418 29.2667 63.8401 29.2667Z"/><path fill="url(#paint0_linear_50_9031)" fill-rule="evenodd" d="M123 70.625C123 98.3964 84.5 135 84.5 135C84.5 135 46 98.3964 46 70.625C46 60.381 50.0562 50.5566 57.2764 43.313C64.4965 36.0694 74.2892 32 84.5 32C94.7108 32 104.503 36.0694 111.724 43.313C118.944 50.5566 123 60.381 123 70.625ZM111.463 73.1665C111.6 71.9305 111.668 70.9348 111.668 70.1795C111.668 64.6861 110.505 59.8108 108.178 55.5535C105.919 51.2961 102.736 48.0001 98.6298 45.6655C94.5916 43.2621 89.9716 42.0605 84.7698 42.0605C79.568 42.0605 74.8796 43.2621 70.7045 45.6655C66.5978 48.0001 63.3467 51.2961 60.9511 55.5535C58.624 59.8108 57.4605 64.5831 57.4605 69.8705C57.4605 75.2265 58.6582 80.0331 61.0538 84.2905C63.5178 88.5478 66.9742 91.8781 71.4231 94.2815C75.872 96.6161 80.9711 97.7835 86.7205 97.7835C91.2378 97.7835 95.3102 97.0281 98.9378 95.5175C102.634 94.0068 105.714 91.8095 108.178 88.9255L102.736 82.5395C98.7667 86.9341 93.5307 89.1315 87.0285 89.1315C81.6898 89.1315 77.2067 87.6895 73.5791 84.8055C70.02 81.8528 67.9325 77.9731 67.3165 73.1665H111.463ZM105.69 64.5433V65.0376C105.69 65.5835 105.209 66.0261 104.616 66.0261H65.2194C64.6264 66.0261 64.1457 65.5835 64.1457 65.0376V64.5433C64.1457 63.9973 64.6264 63.5547 65.2194 63.5547H66.3501C67.6327 56.154 74.1152 50.3295 82.2795 49.288C82.5332 48.1771 83.6133 47.3424 84.9072 47.3424C86.2012 47.3424 87.2813 48.1771 87.5349 49.288C95.6993 50.3295 102.182 56.154 103.464 63.5547H104.616C105.209 63.5547 105.69 63.9973 105.69 64.5433Z" clip-rule="evenodd"/></g><defs><filter id="filter0_d_50_9031" width="166.533" height="166.533" x=".733" y=".733" color-interpolation-filters="sRGB" filterUnits="userSpaceOnUse"><feFlood flood-opacity="0" result="BackgroundImageFix"/><feColorMatrix in="SourceAlpha" result="hardAlpha" type="matrix" values="0 0 0 0 0 0 0 0 0 0 0 0 0 0 0 0 0 0 127 0"/><feOffset/><feGaussianBlur stdDeviation="10"/><feComposite in2="hardAlpha" operator="out"/><feColorMatrix type="matrix" values="0 0 0 0 1 0 0 0 0 0.447059 0 0 0 0 0.384314 0 0 0 0.2 0"/><feBlend in2="BackgroundImageFix" mode="normal" result="effect1_dropShadow_50_9031"/><feBlend in="SourceGraphic" in2="effect1_dropShadow_50_9031" mode="normal" result="shape"/></filter><linearGradient id="paint0_linear_50_9031" x1="84.5" x2="84.5" y1="32" y2="135" gradientUnits="userSpaceOnUse"><stop stop-color="#FA8064"/><stop offset="1" stop-color="#CE5336"/></linearGradient></defs></svg>