<svg xmlns="http://www.w3.org/2000/svg" width="212" height="43" fill="none" viewBox="0 0 212 43"><path fill="url(#paint0_linear_50_9034)" stroke="url(#paint1_linear_50_9034)" d="M180.364 39.2113L180.364 39.2113L180.369 39.2143C183.509 40.9643 187.029 41.8349 190.917 41.8349C194.806 41.8349 198.326 40.9643 201.465 39.2143L201.465 39.2144L201.471 39.2113C204.607 37.4119 207.053 34.9403 208.803 31.8028C210.604 28.6619 211.5 25.1157 211.5 21.177C211.5 17.2382 210.604 13.692 208.803 10.5511C207.053 7.41239 204.604 4.96445 201.465 3.21479C198.326 1.4648 194.806 0.594177 190.917 0.594177C187.029 0.594177 183.509 1.4648 180.369 3.21479C177.23 4.96423 174.758 7.4113 172.958 10.5483C171.156 13.6898 170.259 17.237 170.259 21.177C170.259 25.1169 171.156 28.6641 172.958 31.8056C174.757 34.9414 177.228 37.4121 180.364 39.2113ZM198.184 8.14368L198.184 8.14384L198.196 8.1503C200.365 9.35539 202.053 11.0889 203.263 13.3636C204.473 15.6393 205.084 18.2396 205.084 21.177C205.084 24.1143 204.473 26.7146 203.263 28.9903C202.052 31.2661 200.363 33.0266 198.19 34.2823C196.067 35.4879 193.647 36.0963 190.917 36.0963C188.189 36.0963 185.743 35.4887 183.569 34.282C181.447 33.0268 179.756 31.2658 178.495 28.9867C177.286 26.7118 176.675 24.1127 176.675 21.177C176.675 18.2412 177.286 15.6421 178.495 13.3672C179.757 11.0876 181.447 9.35262 183.567 8.14795L183.567 8.14796L183.57 8.14615C185.745 6.88973 188.19 6.25759 190.917 6.25759C193.645 6.25759 196.062 6.88974 198.184 8.14368Z"/><path fill="url(#paint2_linear_50_9034)" stroke="url(#paint3_linear_50_9034)" d="M117.614 36.6717V41.2199V41.7199H118.114H123.229H123.729V41.2199V16.6994C123.729 11.5469 122.324 7.58292 119.434 4.9015C116.554 2.17971 112.452 0.855225 107.208 0.855225C104.048 0.855225 101.036 1.33928 98.1753 2.30955C95.3137 3.22982 92.8482 4.56304 90.7875 6.31462L90.4635 6.59001L90.6833 6.95402L93.0902 10.9405L93.3992 11.4523L93.8483 11.0576C95.4496 9.65048 97.3724 8.55297 99.6246 7.76957L99.6247 7.76965L99.6337 7.76632C101.884 6.93477 104.232 6.51864 106.681 6.51864C110.265 6.51864 112.905 7.40188 114.686 9.08941L114.686 9.08944L114.691 9.0942C116.464 10.7271 117.388 13.1572 117.388 16.4737V18.3806H105.327C99.9661 18.3806 95.9376 19.4141 93.3478 21.581L93.3478 21.581L93.344 21.5843C90.8183 23.7417 89.5583 26.5922 89.5583 30.0879C89.5583 33.6933 90.9261 36.6214 93.6554 38.8259C96.3766 41.0237 100.009 42.096 104.5 42.096C107.767 42.096 110.605 41.509 112.995 40.3143C114.887 39.3883 116.43 38.1747 117.614 36.6717ZM112.805 34.9317C110.743 36.2257 108.258 36.8839 105.327 36.8839C102.232 36.8839 99.8957 36.2447 98.2578 35.0296C96.6336 33.775 95.8235 32.0948 95.8235 29.9375C95.8235 27.7172 96.6104 26.1155 98.1477 25.045C99.718 23.9517 102.136 23.3671 105.478 23.3671H117.388V29.2378C116.37 31.7142 114.841 33.6048 112.805 34.9317Z"/><path fill="url(#paint4_linear_50_9034)" stroke="url(#paint5_linear_50_9034)" d="M40.8807 23.4873H41.3576L41.3801 23.0109L41.4582 21.357L41.4587 21.3452V21.3334C41.4587 17.3492 40.5831 13.8039 38.8182 10.7122C37.0571 7.57721 34.6247 5.13087 31.5271 3.38169C28.4273 1.63133 24.9332 0.761047 21.0574 0.761047C17.1815 0.761047 13.6629 1.63135 10.5129 3.37991L10.5129 3.3799L10.5097 3.38169C7.41273 5.13046 4.95548 7.57562 3.14269 10.7085L3.14266 10.7085L3.13951 10.7141C1.37642 13.8534 0.5 17.3974 0.5 21.3334C0.5 25.2747 1.43098 28.8226 3.30198 31.9637C5.17048 35.1006 7.76091 37.5686 11.063 39.3642L11.063 39.3642L11.0712 39.3685C14.4298 41.1145 18.257 41.9809 22.5402 41.9809C25.8742 41.9809 28.9304 41.4201 31.7023 40.2908C34.5284 39.1605 36.8849 37.5119 38.7614 35.3428L39.0505 35.0086L38.7544 34.6806L35.6326 31.2225L35.2642 30.8143L34.8928 31.2198C33.3816 32.8695 31.5954 34.1302 29.5301 35.0043C27.4633 35.829 25.1873 36.2448 22.6963 36.2448C18.2682 36.2448 14.6431 35.0218 11.7825 32.6056C9.05372 30.2529 7.48862 27.2237 7.08884 23.4873H40.8807ZM11.4036 9.90098L11.4038 9.90078C14.0094 7.53568 17.2163 6.34687 21.0574 6.34687C24.9525 6.34687 28.1566 7.53677 30.7075 9.89752L30.7074 9.89759L30.7148 9.90421C33.1912 12.1061 34.6539 14.962 35.0945 18.5029H7.09817C7.53669 14.9591 8.97546 12.1023 11.4036 9.90098Z"/><path fill="url(#paint6_linear_50_9034)" stroke="url(#paint7_linear_50_9034)" d="M159.662 20.6435H159.162V21.1435V33.8396C156.616 35.3934 153.64 36.1779 150.218 36.1779C147.261 36.1779 144.599 35.5316 142.222 34.2471C139.881 32.9615 138.047 31.2034 136.712 28.9689C135.378 26.6985 134.709 24.1698 134.709 21.3711C134.709 18.5326 135.379 16.005 136.711 13.7749L136.713 13.7719C138.048 11.4998 139.88 9.74373 142.218 8.4971L142.218 8.49711L142.221 8.49579C144.598 7.21136 147.279 6.56432 150.275 6.56432C154.719 6.56432 158.491 8.05377 161.621 11.0354L161.972 11.3701L162.317 11.0291L165.887 7.50113L166.23 7.16265L165.904 6.80763C164.008 4.73898 161.699 3.17932 158.983 2.1285C156.305 1.03981 153.324 0.5 150.045 0.5C145.864 0.5 142.078 1.3887 138.697 3.17545L138.695 3.1766C135.354 4.96317 132.715 7.45331 130.786 10.6423L130.786 10.6423L130.784 10.6462C128.892 13.8394 127.95 17.4186 127.95 21.3711C127.95 25.3236 128.892 28.9028 130.784 32.096L130.784 32.096L130.788 32.1022C132.716 35.252 135.354 37.74 138.691 39.5635L138.695 39.5656C142.038 41.3532 145.787 42.2422 149.93 42.2422C152.861 42.2422 155.678 41.798 158.379 40.9084C161.081 40.0182 163.459 38.7381 165.507 37.0651L165.69 36.915V36.6779V21.1435V20.6435H165.19H159.662Z"/><path fill="url(#paint8_linear_50_9034)" stroke="url(#paint9_linear_50_9034)" d="M46.1821 0.761047H45.6821V1.26105V41.4809V41.9809H46.1821H63.125C67.4425 41.9809 71.294 41.1244 74.6672 39.3979C78.0392 37.672 80.6573 35.2527 82.5075 32.1418C84.3963 28.9921 85.3349 25.3968 85.3349 21.371C85.3349 17.3463 84.3968 13.7698 82.5075 10.6576C80.6578 7.50922 78.04 5.07038 74.6672 3.34407C71.294 1.61753 67.4425 0.761047 63.125 0.761047H46.1821ZM71.1116 34.1403L71.1088 34.1417C68.7409 35.3632 65.9696 35.9822 62.7804 35.9822H52.4254V6.7598H62.7804C65.9696 6.7598 68.7409 7.37881 71.1088 8.60026L71.1116 8.60168C73.5191 9.82444 75.3602 11.5402 76.6494 13.7512L76.6513 13.7544C77.9397 15.9271 78.5916 18.4604 78.5916 21.371C78.5916 24.2807 77.94 26.8343 76.6503 29.0467C75.3617 31.2191 73.5207 32.9167 71.1116 34.1403Z"/><defs><linearGradient id="paint0_linear_50_9034" x1="190.88" x2="190.88" y1="1.094" y2="41.335" gradientUnits="userSpaceOnUse"><stop stop-color="#FA8064"/><stop offset="1" stop-color="#CE5336"/></linearGradient><linearGradient id="paint1_linear_50_9034" x1="190.88" x2="190.88" y1="1.094" y2="41.335" gradientUnits="userSpaceOnUse"><stop stop-color="#FA8064"/><stop offset="1" stop-color="#CE5336"/></linearGradient><linearGradient id="paint2_linear_50_9034" x1="106.644" x2="106.644" y1="1.355" y2="41.596" gradientUnits="userSpaceOnUse"><stop stop-color="#FA8064"/><stop offset="1" stop-color="#CE5336"/></linearGradient><linearGradient id="paint3_linear_50_9034" x1="106.644" x2="106.644" y1="1.355" y2="41.596" gradientUnits="userSpaceOnUse"><stop stop-color="#FA8064"/><stop offset="1" stop-color="#CE5336"/></linearGradient><linearGradient id="paint4_linear_50_9034" x1="20.979" x2="20.979" y1="1.261" y2="41.481" gradientUnits="userSpaceOnUse"><stop stop-color="#FA8064"/><stop offset="1" stop-color="#CE5336"/></linearGradient><linearGradient id="paint5_linear_50_9034" x1="20.979" x2="20.979" y1="1.261" y2="41.481" gradientUnits="userSpaceOnUse"><stop stop-color="#FA8064"/><stop offset="1" stop-color="#CE5336"/></linearGradient><linearGradient id="paint6_linear_50_9034" x1="146.993" x2="146.993" y1="1" y2="41.742" gradientUnits="userSpaceOnUse"><stop stop-color="#FA8064"/><stop offset="1" stop-color="#CE5336"/></linearGradient><linearGradient id="paint7_linear_50_9034" x1="146.993" x2="146.993" y1="1" y2="41.742" gradientUnits="userSpaceOnUse"><stop stop-color="#FA8064"/><stop offset="1" stop-color="#CE5336"/></linearGradient><linearGradient id="paint8_linear_50_9034" x1="65.508" x2="65.508" y1="1.261" y2="41.481" gradientUnits="userSpaceOnUse"><stop stop-color="#FA8064"/><stop offset="1" stop-color="#CE5336"/></linearGradient><linearGradient id="paint9_linear_50_9034" x1="65.508" x2="65.508" y1="1.261" y2="41.481" gradientUnits="userSpaceOnUse"><stop stop-color="#FA8064"/><stop offset="1" stop-color="#CE5336"/></linearGradient></defs></svg>