<svg width="375" height="300" viewBox="0 0 375 300" fill="none" xmlns="http://www.w3.org/2000/svg">
<path d="M347.034 291.139C347.034 296.025 274.743 300 185.593 300C96.4433 300 24.1527 296.046 24.1527 291.139C24.1527 286.253 96.4433 282.278 185.593 282.278C274.743 282.278 347.034 286.253 347.034 291.139Z" fill="#F8F7EE"/>
<path opacity="0.5" d="M375 91.7491C351.8 105.973 326.513 115.784 298.002 117.633C227.642 122.192 174.793 63.4071 177.259 0H0V122.696C23.7062 124.734 48.2552 137.886 66.5669 154.19C122.513 204.025 161.054 293.232 326.85 199.298C342.591 190.368 358.648 180.998 375 172.405V91.7491Z" fill="#F1EFDD"/>
<path d="M276.493 260.951C280.392 258.852 287.158 266.597 291.163 269.808C295.167 273.019 302.165 274.782 308.277 274.782C314.39 274.782 318.163 274.677 319.385 278.434C319.385 278.434 321.156 278.098 321.83 281.309C322.505 284.521 316.603 290.838 302.27 290.838C287.938 290.838 249.598 290.838 249.598 290.838L244.856 266.785L276.493 260.951Z" fill="#EA4335"/>
<path d="M106.756 286.472C120.562 286.472 119.466 286.472 124.609 286.472C129.752 286.472 167.037 279.504 196.503 242.082L243.527 271.151L263.529 251.506L209.108 193.494C200.529 184.343 186.133 183.797 176.88 192.256L135.991 229.636L106.756 286.472Z" fill="#F8B64C"/>
<path d="M263.53 251.527C267.809 256.984 276.493 260.972 276.493 260.972C276.493 260.972 258.851 270.081 248.333 266.471L263.53 251.527Z" fill="#FFCAC5"/>
<path d="M176.438 202.916C176.438 202.916 144.232 204.301 144.232 202.916C144.232 201.552 144.232 172.567 144.232 172.567L154.18 155.273L156.92 150.487C159.639 155.357 165.963 172.84 170.684 186.293C173.972 195.528 176.438 202.916 176.438 202.916Z" fill="#EA4335"/>
<path d="M169.969 184.133C160.927 184.133 149.334 177.731 153.17 168.37L154.203 155.253L156.943 150.467C159.662 155.337 165.248 170.679 169.969 184.133Z" fill="#FF6C6B"/>
<path d="M210.668 212.299C210.668 212.299 190.287 226.97 190.413 226.634C190.539 226.277 173.888 209.255 173.888 209.255L201.584 197.607L210.668 212.299Z" fill="#EA4335"/>
<path d="M218.762 207.934C217.645 207.934 213.092 212.824 207.359 212.824C201.626 212.824 198.38 207.409 199.16 200.882C200.235 191.836 215.558 186.736 215.558 186.736L218.762 207.934Z" fill="#FFCAC5"/>
<path d="M178.708 201.987L178.708 201.988C178.602 202.176 178.735 202.419 178.968 202.419H206.853C208.235 202.419 209.505 201.694 210.216 200.502C210.217 200.502 210.217 200.501 210.217 200.501L237.089 154.917C237.089 154.917 237.089 154.917 237.089 154.917C237.862 153.599 237.109 151.923 235.592 151.631C235.592 151.631 235.592 151.631 235.592 151.631L212.429 147.203L178.708 201.987ZM178.708 201.987L208.237 149.161M178.708 201.987L208.237 149.161M208.237 149.161C208.237 149.161 208.237 149.161 208.237 149.16M208.237 149.161L208.237 149.16M208.237 149.16C209.081 147.668 210.765 146.887 212.429 147.203L208.237 149.16Z" fill="#228520" stroke="#228520"/>
<path d="M158.754 156.574C158.754 159.093 157.616 161.192 156.751 162.472C156.73 162.493 156.73 162.514 156.709 162.535C135.611 194.941 140.501 219.602 145.496 231.692C147.119 235.637 144.126 239.961 139.848 239.961H83.8452C68.3113 239.961 61.8617 251.379 61.4401 265.294C61.1029 276.942 66.5408 282.294 69.1965 285.086C57.5197 277.53 52.9881 255.303 51.7867 236.519V236.393C49.5104 200.23 58.9108 162.178 70.5666 150.845C70.5666 150.845 85.3628 137.013 117.885 137.013C142.883 137.034 158.754 145.786 158.754 156.574Z" fill="#FF6C6B"/>
<path d="M146.172 183.104C116.305 186.735 102.373 173.68 98.3051 163.669L94.7431 154.917C62.0944 173.596 51.8298 217.924 51.8087 236.393V236.519C53.0101 255.304 57.4363 278.643 69.2185 285.086C66.7103 282.484 61.1249 276.964 61.4621 265.294C61.8836 251.379 68.3333 239.961 83.8672 239.961H139.848C144.148 239.961 147.141 235.617 145.518 231.65C141.619 222.268 137.825 205.331 146.172 183.104Z" fill="#EA4335"/>
<path d="M133.524 138.316C135.842 142.597 131.226 155.778 118.748 152.504C111.94 150.741 107.83 146.606 105.512 143.206C105.47 143.185 105.449 143.164 105.47 143.143C105.132 142.681 104.858 142.24 104.606 141.8C104.5 141.611 104.416 141.38 104.31 141.191C103.573 139.407 103.973 137.329 105.364 135.881C112.615 128.241 120.477 109.96 120.477 109.96L136.221 128.619C133.713 128.619 132.259 131.243 132.428 134.286C132.47 135.629 132.828 137.035 133.524 138.316Z" fill="#FFE1CB"/>
<path d="M136.223 128.64C133.715 128.64 132.26 131.264 132.429 134.307C128.214 132.502 114.239 127.968 116.326 137.728C118.476 147.739 109.539 148.432 105.492 143.248C105.45 143.227 105.429 143.206 105.45 143.185C105.113 142.786 104.839 142.324 104.586 141.842C104.481 141.653 104.396 141.422 104.291 141.233C103.553 139.449 103.954 137.371 105.345 135.923C112.595 128.283 120.457 110.002 120.457 110.002L136.223 128.64Z" fill="#FFCAC5"/>
<path d="M114.45 115.69C114.85 115.081 115.757 114.724 116.115 114.074C116.832 112.772 116.368 111.177 115.715 109.813C115.061 108.47 114.197 107.147 114.134 105.678C114.071 104.209 115.209 102.551 116.789 102.635C115.546 102.005 114.998 100.536 115.145 99.2348C115.293 97.9335 115.989 96.7582 116.663 95.6038C117.338 94.4705 118.054 93.2741 118.202 91.9728C118.37 90.5666 117.907 89.1184 118.159 87.7122C118.434 86.264 119.508 84.9627 120.963 84.3751C122.417 83.7664 124.188 83.8923 125.558 84.6479C128.171 81.6886 132.808 80.3663 136.792 81.4787C138.836 82.0454 140.67 83.1577 142.715 83.7874C144.359 84.2911 146.087 84.438 147.773 84.8158C149.459 85.1936 151.145 85.8652 152.199 87.1245C153.253 88.3838 153.464 90.3358 152.305 91.4901C153.38 90.5666 155.277 91.4271 155.719 92.7284C156.288 94.4704 155.529 97.7027 150.956 99.8015C150.471 101.544 149.122 102.194 147.394 103.034C145.665 103.873 143.558 103.999 141.724 103.39C140.164 102.866 138.436 101.837 137.003 102.593C135.991 103.118 135.675 104.335 135.738 105.405C135.822 106.476 136.181 107.525 136.181 108.575C136.159 110.17 135.211 111.723 133.736 112.562C132.26 113.402 130.321 113.507 128.761 112.814C127.729 112.374 126.885 111.618 125.937 111.03C124.989 110.443 123.85 109.981 122.733 110.191C121.532 110.443 120.689 111.408 119.972 112.332C118.939 113.633 116.958 118.418 116.452 118.397C115.841 118.397 113.438 117.222 114.45 115.69Z" fill="#844635"/>
<path d="M124.294 107.294C124.188 107.21 122.249 101.396 118.877 102.152C113.502 103.39 117.402 113.758 122.481 113.989C122.481 113.989 122.291 121.881 130.195 126.75C138.099 131.619 146.467 126.981 149.355 114.808C152.242 102.634 150.788 99.1504 150.788 99.1504C150.788 99.1504 147.816 101.228 140.313 96.8416C132.156 92.0773 130.301 99.5071 130.891 104.25C131.734 110.778 124.294 107.294 124.294 107.294Z" fill="#FFE1CB"/>
<path d="M213.85 191.835L213.723 191.877C212.965 192.15 212.101 191.835 211.721 191.122C211.342 190.408 211.553 189.506 212.227 189.044L220.384 183.377C221.396 182.663 222.808 182.936 223.503 183.944L224.072 184.783C224.705 185.728 224.536 186.987 223.651 187.722L221.311 189.674V191.227L223.503 192.171C223.841 192.318 224.051 192.633 224.051 192.99V194.501C224.051 194.711 223.967 194.921 223.819 195.089L223.25 195.718C222.913 196.117 222.976 196.705 223.398 196.998L223.693 197.208C224.03 197.439 224.22 197.817 224.22 198.237V199.727C224.22 200.189 223.967 200.608 223.567 200.818L222.112 201.616L222.428 201.721C222.829 201.847 223.103 202.204 223.103 202.623V204.848C223.103 205.1 222.997 205.331 222.829 205.52L221.649 206.695C220.869 207.472 219.815 207.912 218.698 207.912H210.583C209.403 207.912 208.328 207.262 207.801 206.212L207.421 205.457L205.103 206.359C204.049 206.779 202.848 206.254 202.426 205.226C202.047 204.302 202.384 203.211 203.248 202.686L207.906 199.853L207.021 200.252C206.009 200.692 204.85 200.252 204.386 199.265L204.344 199.181C203.923 198.3 204.26 197.229 205.124 196.747L213.85 191.835Z" fill="#FFE1CB"/>
<path d="M223.651 187.722L218.613 190.661L221.311 191.248V189.674L223.651 187.722Z" fill="#FFCAC5"/>
<path d="M193.618 261.768L211.892 273.773C211.892 273.773 220.429 277.446 230.251 258.598L218.047 245.837L193.618 261.768Z" fill="#FFE1CB"/>
<path d="M68.0173 246.216C63.6965 250.875 61.6731 257.717 61.4412 265.315C61.3991 266.889 61.4623 268.505 61.6098 270.121C62.6637 281.875 72.5911 290.858 84.4365 290.858H106.757C128.572 290.858 134.959 269.702 147.247 235.47L193.617 261.768L223.652 243.802L167.692 190.66C154.392 178.025 133.336 178.486 120.605 191.688L68.0173 246.216Z" fill="#F98F2E"/>
<path d="M217.961 270.837C213.219 273.46 209.572 272.264 209.572 272.264L200.045 265.988C200.045 265.988 197.305 272.18 198.633 284.71C198.633 284.71 195.725 284.941 199.519 290.838H280.497C282.9 284.71 280.455 285.046 280.455 285.046C280.034 283.346 278.116 279.966 276.472 279.316C276.472 279.316 248.65 272.18 246.415 268.885C242.959 263.743 235.35 256.355 232.273 255.347C227.53 253.815 226.729 264.75 217.961 270.837Z" fill="#FF6C6B"/>
<path d="M193.618 261.769L222.452 250.456L218.827 246.678L193.618 261.769Z" fill="#FFCAC5"/>
<path d="M192.876 202.247L190.832 200.484H188.766H183.307L187.839 197.609L188.682 198.763L188.787 200.484H190.853L192.075 197.798C192.139 197.672 192.16 197.525 192.16 197.378V195.636C192.16 195.342 192.033 195.069 191.801 194.859L188.345 191.837C187.691 191.27 186.764 191.123 185.963 191.459L180.778 193.663L178.333 191.228C177.532 190.431 176.288 190.284 175.319 190.871L170.113 193.999C168.996 194.67 168.026 195.573 167.288 196.664L164.169 201.219H154.853C158.815 201.219 162.293 222.501 154.853 222.501H171.124C174.687 222.501 180.146 218.45 182.675 216.414C183.539 215.701 184.066 214.651 184.066 213.539V211.251H188.366C189.335 211.251 190.094 210.474 190.094 209.53V208.103C190.094 207.221 189.42 206.466 188.534 206.382L186.131 206.13H190.094L191.696 205.962C192.792 205.857 193.614 204.934 193.614 203.842C193.614 203.233 193.34 202.646 192.876 202.247Z" fill="#FFE1CB"/>
<path d="M180.756 193.683L172.114 197.293L178.311 191.249L180.756 193.683Z" fill="#FFCAC5"/>
<path d="M154.853 201.24L112.636 198.931L94.7411 154.918C92.8231 149.441 87.617 145.747 81.7786 145.747C72.4414 145.747 65.8231 154.835 68.7318 163.692L86.0362 209.908C88.8816 217.485 96.1533 222.522 104.268 222.522H154.875C162.294 222.501 158.816 201.24 154.853 201.24Z" fill="#FF6C6B"/>
<path d="M233.915 56.922C233.873 56.922 233.852 56.922 233.81 56.922C232.503 51.4861 228.14 47.4983 222.934 47.4983C217.306 47.4983 212.669 52.1577 211.805 58.2653C208.391 54.3825 203.669 51.9688 198.442 51.9688C188.03 51.9688 179.557 61.5395 179.557 73.3559C179.557 78.1622 180.969 82.5908 183.33 86.1798C176.669 90.9231 172.349 98.374 172.349 106.79C172.349 121.125 184.826 132.753 200.213 132.753C203.733 132.753 207.063 132.123 210.161 131.032C216.569 137.118 224.831 140.77 233.831 140.791C254.255 140.791 270.801 122.028 270.822 98.8777C270.843 75.7276 254.339 56.943 233.915 56.922Z" fill="#96BCF4"/>
<path d="M233.915 54.8222C233.873 54.8222 233.852 54.8222 233.81 54.8222C232.503 49.3862 228.14 45.3984 222.934 45.3984C217.306 45.3984 212.669 50.0579 211.805 56.1655C208.39 52.2826 203.669 49.869 198.442 49.869C188.03 49.869 179.557 59.4396 179.557 71.2561C179.557 76.0624 180.969 80.4909 183.33 84.0799C176.669 88.8233 172.348 96.2742 172.348 104.69C172.348 119.025 184.826 130.653 200.212 130.653C203.732 130.653 207.063 130.023 210.161 128.932C216.568 135.019 224.831 138.671 233.831 138.692C254.255 138.692 270.8 119.928 270.821 96.7779C270.885 73.6068 254.339 54.8432 233.915 54.8222Z" fill="#FBFBFB"/>
<path d="M194.056 95.4766L225.04 67.4151C227.717 65.0015 231.953 65.3583 234.061 68.2757C238.782 74.803 242.113 82.2329 243.82 90.1455C245.548 98.0791 245.59 106.244 243.988 114.135C243.272 117.64 239.562 119.655 236.169 118.564L196.269 105.761C191.822 104.313 190.579 98.6248 194.056 95.4766Z" fill="#FDB527"/>
<path d="M226.263 68.3808C224.851 66.177 226.347 63.1127 228.961 63.0708C230.605 63.0498 232.439 63.7634 234.041 66.1141C239.099 73.5439 243.019 81.7084 244.937 90.5235C246.856 99.3806 246.919 108.489 245.127 117.326C244.706 119.361 243.399 120.957 241.671 121.838C239.31 123.055 236.528 121.103 236.675 118.48C237.223 109.287 237.308 85.4863 226.263 68.3808Z" fill="#EF8216"/>
<path d="M231.257 99.9888C233.702 102.675 233.513 106.81 230.815 109.245C228.117 111.679 223.965 111.49 221.52 108.804C219.075 106.117 219.264 101.983 221.962 99.5481C224.66 97.1344 228.812 97.3233 231.257 99.9888Z" fill="#EA4335"/>
<path d="M225.903 82.6117C228.01 84.8995 227.842 88.4675 225.523 90.5453C223.226 92.6442 219.643 92.4762 217.556 90.1675C215.448 87.8798 215.617 84.3118 217.935 82.2339C220.212 80.1351 223.795 80.303 225.903 82.6117Z" fill="#EA4335"/>
<path d="M212.182 91.9727C214.501 94.5122 214.311 98.4161 211.761 100.725C209.21 103.034 205.29 102.845 202.972 100.305C200.653 97.7654 200.843 93.8616 203.393 91.5529C205.922 89.2442 209.864 89.4331 212.182 91.9727Z" fill="#EA4335"/>
<path d="M212.899 105.782C211.972 101.269 216.124 100.094 217.894 97.4492C217.894 97.4492 220.761 104.228 212.899 105.782Z" fill="#228520"/>
<path d="M231.764 92.812C229.994 95.6034 227.275 94.1552 225.062 94.638C225.062 94.638 226.938 89.7267 231.764 92.812Z" fill="#228520"/>
<path d="M210.496 83.4092C213.636 84.4376 212.899 87.4179 213.91 89.4538C213.91 89.4328 208.683 88.8242 210.496 83.4092Z" fill="#228520"/>
<path d="M196.627 95.9814C199.767 97.0099 199.03 99.9902 200.041 102.026C200.041 102.005 194.793 101.375 196.627 95.9814Z" fill="#228520"/>
<path d="M227.737 76.3566C225.228 80.2815 221.392 78.2456 218.252 78.9382C218.231 78.9172 220.908 71.9911 227.737 76.3566Z" fill="#228520"/>
<path d="M222.109 100.22C223.353 98.667 223.121 96.4003 221.561 95.162C220.002 93.9237 217.725 94.1546 216.482 95.7077L215.786 95.141C217.346 93.2101 220.191 92.8952 222.131 94.4694C224.07 96.0225 224.386 98.8559 222.805 100.787L222.109 100.22Z" fill="#BBDFFD"/>
<path d="M221.919 83.1777C221.771 85.4654 223.5 87.4593 225.797 87.6063C228.095 87.7532 230.097 86.0321 230.244 83.7444L231.277 83.8073C231.088 86.6618 228.6 88.8236 225.713 88.6347C222.846 88.4458 220.675 85.9692 220.865 83.0938L221.919 83.1777Z" fill="#BBDFFD"/>
<path d="M211.762 88.5309C209.506 88.0481 207.293 89.4544 206.788 91.7001C206.303 93.9459 207.715 96.1497 209.97 96.6534L209.738 97.6608C206.935 97.0521 205.143 94.2817 205.755 91.4902C206.366 88.6988 209.148 86.9148 211.951 87.5234L211.762 88.5309Z" fill="#BBDFFD"/>
<path d="M166.825 98.0991C166.34 99.9041 164.465 100.954 162.631 100.471C160.818 99.988 159.722 98.1411 160.228 96.3361C160.713 94.5311 162.589 93.4817 164.422 93.9644C166.256 94.4471 167.331 96.2941 166.825 98.0991Z" fill="#96BCF4"/>
<path d="M174.497 91.1108C173.907 93.2936 171.631 94.5949 169.418 94.0072C167.205 93.4195 165.898 91.1738 166.488 88.991C167.078 86.8082 169.355 85.5069 171.568 86.0946C173.781 86.6823 175.109 88.928 174.497 91.1108Z" fill="#96BCF4"/>
<path d="M186.532 86.3673C185.837 88.9279 183.16 90.46 180.547 89.7674C177.933 89.0748 176.394 86.4303 177.111 83.8697C177.806 81.3091 180.483 79.777 183.097 80.4696C185.689 81.1622 187.228 83.8067 186.532 86.3673Z" fill="#96BCF4"/>
<path d="M166.826 96.0007C166.341 97.8057 164.465 98.8551 162.632 98.3723C160.819 97.8896 159.723 96.0426 160.229 94.2376C160.714 92.4326 162.589 91.3832 164.423 91.866C166.257 92.3487 167.332 94.1957 166.826 96.0007Z" fill="#FBFBFB"/>
<path d="M174.498 89.0124C173.908 91.1951 171.632 92.4964 169.419 91.9087C167.205 91.3211 165.899 89.0753 166.489 86.8925C167.079 84.7097 169.355 83.4085 171.568 83.9962C173.782 84.5838 175.109 86.8296 174.498 89.0124Z" fill="#FBFBFB"/>
<path d="M186.533 84.2688C185.838 86.8294 183.161 88.3616 180.547 87.669C177.934 86.9764 176.395 84.3318 177.112 81.7712C177.828 79.2107 180.484 77.6785 183.098 78.3711C185.69 79.0637 187.229 81.7083 186.533 84.2688Z" fill="#FBFBFB"/>
<path d="M269.492 141.771C288.459 155.991 304.145 174.936 314.857 196.591C318.646 204.258 321.906 212.638 321.335 221.25C320.763 229.861 315.323 238.641 307.194 240.258C296.905 242.317 287.697 231.164 287.845 220.221C288.184 197.369 316.593 176.785 372.458 191.109" stroke="#4285F4" stroke-width="0.75" stroke-miterlimit="10" stroke-dasharray="3 3"/>
</svg>
