<svg width="374" height="304" viewBox="0 0 374 304" fill="none" xmlns="http://www.w3.org/2000/svg">
<path d="M347.772 294.891C347.772 299.914 275.776 304 186.988 304C98.2008 304 26.2041 299.935 26.2041 294.891C26.2041 289.869 98.2008 285.783 186.988 285.783C275.776 285.783 347.772 289.869 347.772 294.891Z" fill="#F8F7EE"/>
<path opacity="0.5" d="M373.979 175.505C350.316 192.934 316.567 188.997 302.024 175.867C269.83 146.754 264.093 112.492 240.43 22.6643C238.266 14.4711 235.429 6.91634 231.982 0H55.0167C37.2593 18.3443 19.2075 37.8164 0 55.6287V149.989C30.2403 134.752 55.5631 127.686 82.2519 131.049C175.515 142.817 222.378 237.05 314.486 255.99C335.123 260.225 354.771 259.884 374 256.309V175.505H373.979Z" fill="#F1EFDD"/>
<path d="M138.698 155.031C137.606 150.924 118.84 158.925 108.458 173.95C106.735 176.461 102.952 174.013 104.528 171.417C105.054 170.545 105.705 169.566 106.504 168.353C114.111 156.308 125.627 151.69 128.843 149.498C137.753 143.773 118.251 143.731 106.924 159.925C105.453 162.032 102.175 160.649 102.7 158.116C103.268 155.456 104.528 154.733 107.26 152.307C115.435 144.837 123.379 143.39 126.237 141.773C128.464 140.666 128.569 138.495 125.627 138.07C106.462 136.176 100.452 163.437 104.886 144.028C105.138 142.901 112.745 138.283 120.479 135.09C123.841 132.792 120.058 129.834 114.3 131.92C112.094 132.707 110.181 130.196 111.589 128.302C114.952 123.726 118.146 120.492 115.897 118.427C112.472 115.193 106.525 126.259 106.441 131.324C106.441 131.643 106.399 131.92 106.273 132.217C106.273 132.239 106.252 132.26 106.252 132.26C105.453 134.197 102.868 134.473 101.691 132.749C97.4044 126.45 90.5957 126.812 93.0334 131.004C93.1384 131.196 102.952 141.858 102.553 143.475C99.4639 155.882 103.772 148.668 95.4501 138.942C93.2015 136.282 87.5485 131.302 85.8884 133.92C84.7115 135.771 87.4644 137.708 91.4152 142.369C97.4044 149.391 99.2537 154.797 99.7371 159.457C99.9893 161.883 96.774 162.969 95.4711 160.926C86.75 147.327 72.5439 140.326 71.1149 143.411C70.1903 145.412 74.6034 147.497 81.7694 153.307C92.0246 161.607 97.2573 171.14 99.5689 174.567C99.8001 174.929 99.9472 175.354 99.9893 175.78C100.809 187.761 102.511 186.463 97.9508 180.079C82.0426 157.436 59.2206 155.393 68.6142 162.202C72.2077 165.033 88.1159 173.098 97.3834 185.292C98.9805 187.399 96.4587 190.166 94.2522 188.719C79.6259 179.121 63.9279 184.165 85.1108 192.868C95.8073 197.231 101.733 202.871 104.739 204.616C105.243 204.914 105.621 205.424 105.789 205.978C109.929 219.534 110.118 213.064 100.641 207.786C82.7571 197.699 68.9294 208.68 78.6802 210.766C81.8325 211.532 89.2507 211.021 97.4675 214.405C105.243 217.576 109.761 222.662 112.031 224.237C112.388 224.492 112.682 224.854 112.85 225.28C117.684 236.622 117.936 233.6 111.863 230.259C88.6833 217.15 67.9627 232.451 80.5295 233.473C84.9006 234.047 95.5341 231.515 109.761 235.494C121.445 238.601 117.074 236.112 128.8 257.52C145.171 287.08 117.894 236.431 109.131 208.808C108.921 208.148 109.005 207.467 109.383 206.871C111.337 203.743 114.616 197.125 121.004 190.719C128.695 182.909 136.534 179.589 139.602 177.099C148.071 170.587 130.503 167.203 115.603 185.803C104.781 199.21 108.584 213.49 104.465 190.102C104.381 189.655 104.423 189.166 104.591 188.761C112.808 166.927 139.539 158.117 138.698 155.031Z" fill="#228520"/>
<path d="M264.911 176.782C266.193 173.675 280.105 181.975 286.682 194.893C287.775 197.042 290.99 195.531 290.024 193.318C289.708 192.594 289.309 191.743 288.805 190.7C284.097 180.421 275.523 175.548 273.233 173.505C266.844 168.057 282.164 170.121 289.351 184.06C290.297 185.891 293.008 185.146 292.861 183.082C292.692 180.932 291.789 180.23 289.897 178.038C284.266 171.292 278.171 169.313 276.112 167.717C274.473 166.61 274.641 164.907 276.973 164.865C292.23 165.44 294.079 187.487 292.65 171.76C292.566 170.845 287.081 166.397 281.344 163.056C278.949 160.885 282.227 158.991 286.535 161.226C288.195 162.077 289.939 160.311 289.036 158.672C286.871 154.714 284.707 151.841 286.682 150.436C289.708 148.266 293.218 157.587 292.755 161.588C292.734 161.843 292.734 162.056 292.798 162.311C292.798 162.332 292.797 162.332 292.818 162.354C293.239 163.95 295.235 164.461 296.349 163.226C300.384 158.736 305.68 159.757 303.326 162.779C303.221 162.928 294.416 170.228 294.542 171.547C295.677 181.613 293.029 175.505 300.594 168.738C302.632 166.887 307.592 163.588 308.622 165.823C309.336 167.397 306.983 168.61 303.389 171.866C297.967 176.74 295.929 180.783 295.067 184.401C294.605 186.295 297.022 187.487 298.261 186.018C306.541 176.293 318.436 172.313 319.213 174.888C319.738 176.57 316.04 177.719 309.82 181.528C300.888 186.933 295.782 193.871 293.617 196.318C293.386 196.574 293.239 196.893 293.176 197.212C291.263 206.533 290.066 205.341 294.332 200.809C309.189 184.741 327.346 185.593 319.255 189.913C316.124 191.743 302.801 196.382 294.248 204.937C292.756 206.427 294.458 208.853 296.349 207.959C308.832 202 320.642 207.64 303.095 212.194C294.248 214.471 288.994 218.259 286.451 219.323C286.01 219.515 285.673 219.855 285.484 220.281C280.819 230.496 281.344 225.367 289.33 222.26C304.44 216.259 314.128 226.367 306.268 226.963C303.704 227.218 297.946 226.027 291.137 227.793C284.686 229.432 280.609 232.964 278.655 233.943C278.339 234.092 278.087 234.369 277.898 234.667C272.918 243.052 273.023 240.647 278.15 238.689C297.736 230.879 312.404 245.137 302.422 244.584C298.934 244.563 290.843 241.434 279.264 243.03C269.765 244.222 273.464 242.732 261.99 258.268C246.04 279.719 272.749 242.881 282.542 222.132C282.773 221.643 282.773 221.089 282.542 220.6C281.323 217.94 279.453 212.386 275.103 206.661C269.87 199.702 264.07 196.255 261.927 193.977C255.959 187.955 270.123 187.167 279.873 203.405C286.976 215.11 282.479 225.899 288.174 207.98C288.279 207.64 288.3 207.257 288.216 206.916C283.992 188.913 263.923 179.123 264.911 176.782Z" fill="#228520"/>
<path d="M41.085 228.794C41.6103 231.624 42.9763 233.624 44.8256 234.944C46.6539 236.178 49.0285 237.072 51.7815 237.434C57.2873 238.328 64.6425 238.37 72.9643 239.583C81.2652 240.668 90.3015 243.392 97.9089 247.329C105.453 251.309 111.253 256.587 113.754 260.46C98.5183 236.668 68.6353 223.622 41.085 228.794Z" fill="#228520"/>
<path d="M41.0848 228.793C40.5594 225.962 41.2109 223.664 42.9761 221.813C44.7414 219.876 47.6204 218.705 51.256 217.939C58.5481 216.577 68.8243 218.45 78.2389 223.111C87.7586 227.622 96.1015 235.134 101.965 242.306C107.849 249.627 111.211 256.607 113.733 260.438C98.5182 236.667 68.6352 223.621 41.0848 228.793Z" fill="#92D672"/>
<path d="M50.2471 258.608C52.5797 262.098 55.9 262.268 59.8298 261.183C63.8016 260.097 68.7191 257.82 74.5612 255.926C80.3613 253.947 87.065 252.67 93.2643 252.521C99.4217 252.415 104.907 253.607 107.87 255.075C89.8179 245.967 67.0799 247.35 50.2471 258.608Z" fill="#228520"/>
<path d="M50.2465 258.609C47.9559 255.225 49.469 251.565 53.8401 248.5C58.1901 245.478 65.3141 243.563 72.7954 243.542C80.2977 243.414 88.0101 245.393 94.1464 247.904C100.325 250.479 104.906 253.608 107.869 255.055C89.8174 245.968 67.0794 247.351 50.2465 258.609Z" fill="#92D672"/>
<path d="M292.987 268.076H80.9903C73.6771 268.076 67.751 274.077 67.751 281.483C67.751 288.889 73.6771 294.89 80.9903 294.89H292.987C300.3 294.89 306.227 288.889 306.227 281.483C306.227 274.077 300.3 268.076 292.987 268.076Z" fill="#F98F2E"/>
<path d="M290.024 270.632H83.9527C80.2961 270.632 77.333 273.632 77.333 277.335C77.333 281.038 80.2961 284.039 83.9527 284.039H290.024C293.68 284.039 296.643 281.038 296.643 277.335C296.643 273.632 293.68 270.632 290.024 270.632Z" fill="#F8B64C"/>
<path d="M194.933 164.652C194.933 169.057 191.402 172.611 187.073 172.611C182.723 172.611 179.214 169.036 179.214 164.652C179.214 160.247 182.744 156.693 187.073 156.693C191.402 156.693 194.933 160.247 194.933 164.652Z" fill="#F98F2E"/>
<path d="M289.184 268.078H84.9199C84.9199 239.668 96.2259 213.939 114.551 195.233H114.572C133.065 176.336 158.724 164.652 187.052 164.652C241.543 164.652 286.073 207.895 289.036 262.332C289.142 264.226 289.184 266.142 289.184 268.078Z" fill="#F8B64C"/>
<path d="M289.184 268.078H84.9199C84.9199 239.668 96.2259 213.939 114.551 195.233H114.572C99.6513 214.599 117.157 262.332 182.008 262.332H289.036C289.142 264.226 289.184 266.142 289.184 268.078Z" fill="#F98F2E"/>
<path d="M259.396 219.999C263.082 214.408 253.638 201.469 238.302 191.098C222.965 180.727 207.544 176.852 203.858 182.443C200.171 188.034 209.615 200.973 224.952 211.344C240.288 221.714 255.709 225.589 259.396 219.999Z" fill="#F98F2E"/>
<path d="M187.073 146.478L184.972 113.258C184.888 112.088 185.771 111.066 186.947 111.002C188.103 110.917 189.112 111.811 189.175 113.003C189.175 113.088 189.175 113.194 189.175 113.279L187.073 146.478Z" fill="#FDB527"/>
<path d="M160.237 151.926L144.665 134.944C143.866 134.071 143.929 132.731 144.77 131.922C145.631 131.113 146.955 131.177 147.754 132.028C147.838 132.114 147.922 132.241 147.985 132.348L160.237 151.926Z" fill="#FDB527"/>
<path d="M213.888 151.926L226.14 132.347C226.77 131.347 228.073 131.049 229.061 131.687C230.048 132.326 230.343 133.645 229.712 134.646C229.649 134.752 229.565 134.858 229.481 134.965L213.888 151.926Z" fill="#FDB527"/>
<path d="M266.742 106.766C266.742 92.0606 274.643 93.529 279.246 87.017C283.554 80.9093 278.006 74.4612 264.493 79.8666C257.937 82.4842 250.813 68.4174 274.454 68.4174C292.044 68.4174 298.243 85.1017 282.377 96.5722C268.675 106.83 286.853 106.766 266.742 106.766ZM265.523 119.896C265.523 111.022 278.804 111.065 278.804 119.896C278.804 128.707 265.523 128.77 265.523 119.896Z" fill="#EA4335"/>
<path d="M242.555 165.12C254.491 154.883 246.59 149.393 242.618 153.841C242.261 154.224 241.63 154.224 241.294 153.841C237.322 149.393 229.421 154.905 241.357 165.12C241.672 165.417 242.198 165.417 242.555 165.12Z" fill="#EA4335"/>
<path d="M0.610352 211.364C13.4294 214.897 25.681 215.301 40.2443 207.959C81.0549 187.359 79.4998 134.838 68.4671 93.2971C59.5568 59.7794 38.5421 69.7389 39.1935 84.8272C40.3493 112.11 90.1753 122.665 119.071 108.194" stroke="#2E79E9" stroke-width="0.75" stroke-miterlimit="10" stroke-dasharray="3 3"/>
<path d="M319.445 126.793C335.815 135.987 334.533 157.587 319.024 159.736C312.615 160.63 304.966 156.097 306.647 149.777C308.223 143.882 315.851 140.392 321.672 145.329C340.312 161.12 347.773 222.728 368.724 237.71" stroke="#4285F4" stroke-width="0.75" stroke-miterlimit="10" stroke-dasharray="3 3"/>
</svg>
