<svg width="375" height="304" viewBox="0 0 375 304" fill="none" xmlns="http://www.w3.org/2000/svg">
<path opacity="0.5" d="M0.0210915 241C98.7596 201.951 198.025 122.134 375 152.885V72.0708C336.335 89.4943 296.616 94.6937 280.412 90.3219C237.786 78.8407 266.168 34.7621 308.058 0H101.077C76.9723 29.0533 59.4202 60.9715 47.1779 81.2813C33.9032 103.289 18.4371 124.893 0 142.656V241H0.0210915Z" fill="#F1EFDD"/>
<path d="M348 295C348 299.963 276.131 304 187.5 304C98.8484 304 27 299.984 27 295C27 290.037 98.8694 286 187.5 286C276.152 286 348 290.037 348 295Z" fill="#F8F7EE"/>
<path d="M284.156 68.5785L283.607 68.0894C282.299 66.9196 282.172 64.8991 283.333 63.5805L286.624 59.8373C287.785 58.5187 289.789 58.3911 291.097 59.5608L291.646 60.05C292.954 61.2197 293.081 63.2402 291.92 64.5588L288.629 68.302C287.468 69.6207 285.464 69.7483 284.156 68.5785Z" fill="#FDB527"/>
<path d="M235.183 68.5785L235.732 68.0894C237.04 66.9196 237.167 64.8991 236.006 63.5805L232.715 59.8373C231.554 58.5187 229.55 58.3911 228.242 59.5608L227.693 60.05C226.385 61.2197 226.258 63.2402 227.419 64.5588L230.71 68.302C231.892 69.6207 233.875 69.7483 235.183 68.5785Z" fill="#FDB527"/>
<path d="M265.104 53.754V51.3932H254.258V53.754C254.258 54.3282 253.837 54.7962 253.288 54.8812C233.497 57.9438 218.263 74.9371 217.82 95.6311C217.335 118.154 235.079 137.529 257.423 138.72C281.582 140.018 301.584 120.642 301.584 96.5668C301.584 75.4475 286.182 57.9864 266.095 54.8812C265.526 54.7962 265.104 54.3282 265.104 53.754Z" fill="#F98F2E"/>
<path d="M290.69 101.625C293.483 84.3511 281.856 68.0648 264.719 65.2487C247.582 62.4327 231.424 74.1534 228.631 91.4275C225.837 108.702 237.465 124.988 254.602 127.804C271.739 130.62 287.896 118.899 290.69 101.625Z" fill="#E4EAF8"/>
<path d="M259.681 96.5885H287.637C287.637 112.05 275.02 124.769 259.681 124.769C244.341 124.769 231.724 112.05 231.724 96.5885C231.724 81.1266 244.341 68.4082 259.681 68.4082V96.5885Z" fill="#FDB527"/>
<path d="M267.277 49.7142H252.107C250.609 49.7142 249.406 48.5019 249.406 46.9919C249.406 45.4818 250.609 44.2695 252.107 44.2695H267.277C268.775 44.2695 269.978 45.4818 269.978 46.9919C269.978 48.5019 268.754 49.7142 267.277 49.7142Z" fill="#FDB527"/>
<path d="M264.449 49.7139H254.912V51.3941H264.449V49.7139Z" fill="#FF5C5B"/>
<path d="M169.646 92.2912L99.9274 123.413L104.378 133.544L174.097 102.422L169.646 92.2912Z" fill="#EF8216"/>
<path d="M169.713 92.249L168.869 100.99C168.848 101.16 168.827 101.309 168.806 101.479C168.51 102.734 167.667 103.819 166.464 104.351L111.057 129.064C109.728 129.66 108.166 129.49 106.985 128.596L99.9797 123.364L129.477 110.199L169.713 92.249Z" fill="#FDB527"/>
<path d="M168.805 101.458C168.51 102.713 167.666 103.798 166.463 104.329L111.056 129.043C109.727 129.638 108.165 129.468 106.984 128.575L99.9788 123.343L129.476 110.178L139.688 111.156C143.57 111.539 147.495 110.901 151.082 109.306L168.805 101.458Z" fill="#EF8216"/>
<path d="M139.371 111.836C139.941 113.112 139.35 114.601 138.106 115.175C136.84 115.749 135.363 115.154 134.793 113.899C134.223 112.623 134.814 111.134 136.059 110.56C137.325 109.986 138.802 110.56 139.371 111.836Z" fill="#EF8216"/>
<path d="M226.005 153.119H217.228C216.279 153.119 215.519 152.354 215.519 151.397C215.519 150.439 216.279 149.674 217.228 149.674H226.005C226.955 149.674 227.714 150.439 227.714 151.397C227.714 152.354 226.955 153.119 226.005 153.119Z" fill="#F78E1B"/>
<path d="M214.253 254.122H126.269V261.779H214.253C221.448 261.779 228.179 258.206 232.251 252.23L239.003 242.319C241.809 238.214 243.307 233.322 243.307 228.324L232.251 244.552C228.179 250.549 221.448 254.122 214.253 254.122Z" fill="#F98F2E"/>
<path d="M214.253 261.586H150.069C147.959 261.586 146.271 263.309 146.271 265.415C146.271 267.541 147.98 269.243 150.069 269.243H214.253C221.448 269.243 228.179 265.67 232.251 259.694L239.003 249.783C241.809 245.678 243.307 240.786 243.307 235.788L232.251 252.016C228.179 258.013 221.448 261.586 214.253 261.586Z" fill="#B7975A"/>
<path d="M123.003 291.555C139.287 284.682 146.961 265.804 140.143 249.39C133.325 232.975 114.597 225.24 98.3125 232.113C82.0284 238.985 74.3545 257.863 81.1726 274.278C87.9906 290.692 106.719 298.427 123.003 291.555Z" fill="#868686"/>
<path d="M88.0003 262C90.0847 273.958 99.5961 283 111 283C122.428 283 131.916 273.958 134 262H88.0003Z" fill="#EA4335"/>
<path d="M110.676 273.05C116.852 273.05 121.859 268.003 121.859 261.778C121.859 255.553 116.852 250.506 110.676 250.506C104.5 250.506 99.4933 255.553 99.4933 261.778C99.4933 268.003 104.5 273.05 110.676 273.05Z" fill="#010F07"/>
<path d="M302.011 269.145C306.041 251.82 295.375 234.481 278.187 230.419C260.999 226.356 243.798 237.108 239.768 254.433C235.737 271.759 246.404 289.097 263.592 293.16C280.78 297.223 297.981 286.471 302.011 269.145Z" fill="#868686"/>
<path d="M248 261C250.13 273.3 259.848 282.599 271.5 282.599C283.177 282.599 292.87 273.3 295 261H248Z" fill="#EA4335"/>
<path d="M270.864 273.05C277.04 273.05 282.046 268.003 282.046 261.778C282.046 255.553 277.04 250.506 270.864 250.506C264.688 250.506 259.681 255.553 259.681 261.778C259.681 268.003 264.688 273.05 270.864 273.05Z" fill="#010F07"/>
<path d="M232 261.38C233.261 262.775 307.969 261.38 307.969 261.38C307.969 261.38 310.385 217.254 272.58 214.141C234.522 211.004 232 261.38 232 261.38Z" fill="#F8B64C"/>
<path d="M258.984 200.632L256.326 199.122C255.165 198.463 254.216 197.485 253.561 196.315L233.032 158.458C230.837 154.246 234.129 153.353 236.112 154.948C239.383 157.586 243.792 158.245 245.396 158.394C245.734 158.436 246.008 158.16 246.008 157.82V136.339C246.008 136.02 245.734 135.743 245.417 135.743C239.214 135.977 235.395 139.869 233.623 142.294C232.631 143.634 231.259 144.612 229.698 145.165L225.563 146.611C222.566 147.653 221.005 150.971 222.102 153.991L235.5 195.018C237.568 201.462 237.083 208.48 234.129 214.563L225.119 233.109C221.786 239.978 214.865 244.317 207.29 244.317H194.103C188.681 244.317 184.271 243.466 180.684 242.063C165.239 236.001 163.214 214.691 176.865 205.205L194.103 193.21H109.305C68.33 213.648 59.827 254.143 59.827 254.143H214.274C221.469 254.143 228.2 250.57 232.272 244.594L243.328 228.366C246.409 223.857 250.861 220.476 256.009 218.753L257.022 218.413C260.039 217.392 262.529 215.073 263.457 212.011C264.807 207.459 262.845 202.823 258.984 200.632Z" fill="#EA4335"/>
<path d="M249.362 158.436H246.535C246.24 158.436 246.008 158.202 246.008 157.905V136.275C246.008 135.977 246.24 135.743 246.535 135.743H249.362C251.219 135.743 252.738 137.253 252.738 139.146V155.055C252.738 156.905 251.219 158.436 249.362 158.436Z" fill="#F78E1B"/>
<path d="M223.327 159.074H214.275C212.861 159.074 211.701 157.925 211.701 156.479C211.701 155.054 212.84 153.885 214.275 153.885H223.327C223.706 153.885 223.918 153.672 224.023 153.544C224.129 153.417 224.276 153.14 224.171 152.779C223.812 151.396 224.614 149.971 225.985 149.61C227.357 149.248 228.749 150.056 229.129 151.439C229.614 153.268 229.235 155.182 228.095 156.692C226.935 158.223 225.205 159.074 223.327 159.074Z" fill="#EF8216"/>
<path d="M138.844 193.189L143.465 183.172C145.174 179.471 148.845 177.11 152.896 177.11H198.007C203.218 177.11 207.628 180.981 208.325 186.192L208.346 186.298C208.831 189.935 206.025 193.189 202.374 193.189H138.844Z" fill="#F98F2E"/>
<path d="M95.3172 188.508H145.428C146.715 188.508 147.749 189.55 147.749 190.847C147.749 192.145 146.715 193.187 145.428 193.187H95.3172C94.0301 193.187 92.9962 192.145 92.9962 190.847C92.9962 189.55 94.0301 188.508 95.3172 188.508Z" fill="#F98F2E"/>
<path d="M150.111 261.777L155.154 247.463C162.285 227.195 148.74 204.672 124.982 208.117C101.308 211.541 70.2076 229.556 61.7046 261.777H150.111Z" fill="#F8B64C"/>
<path d="M126.079 98.5029C125.003 97.2056 123.083 97.0354 121.796 98.1201L77.4032 135.51C76.1162 136.594 75.9474 138.53 77.0234 139.827L79.2179 142.464L128.274 101.14L126.079 98.5029Z" fill="#F98F2E"/>
<path d="M150.955 173.366L141.797 129.277L79.2167 142.485L88.3737 186.574C88.7113 188.233 90.336 189.296 91.9818 188.956L148.612 177.003C150.237 176.642 151.292 175.025 150.955 173.366Z" fill="#F98F2E"/>
<path d="M79.2181 143.378C79.7192 143.378 80.1254 142.968 80.1254 142.463C80.1254 141.958 79.7192 141.549 79.2181 141.549C78.717 141.549 78.3109 141.958 78.3109 142.463C78.3109 142.968 78.717 143.378 79.2181 143.378Z" fill="#FF5C5B"/>
<path d="M135.279 242.211H86.1172C85.1255 242.211 84.3027 241.403 84.3027 240.382C84.3027 239.382 85.1044 238.553 86.1172 238.553H135.279C136.271 238.553 137.093 239.361 137.093 240.382C137.072 241.403 136.271 242.211 135.279 242.211Z" fill="#F98F2E"/>
<path d="M135.278 248.718H86.1166C85.125 248.718 84.3021 247.91 84.3021 246.889C84.3021 245.889 85.1039 245.06 86.1166 245.06H135.278C136.27 245.06 137.093 245.868 137.093 246.889C137.072 247.91 136.27 248.718 135.278 248.718Z" fill="#F98F2E"/>
<path d="M135.278 255.227H86.1166C85.125 255.227 84.3021 254.419 84.3021 253.398C84.3021 252.398 85.1039 251.569 86.1166 251.569H135.278C136.27 251.569 137.093 252.377 137.093 253.398C137.072 254.419 136.27 255.227 135.278 255.227Z" fill="#F98F2E"/>
<path d="M204.883 125.761L129.621 113.417L127.856 124.354L203.118 136.698L204.883 125.761Z" fill="#EF8216"/>
<path d="M199.439 132.657L204.883 125.809L129.621 113.452L132.639 121.704C133.145 123.087 134.348 124.108 135.804 124.341L195.599 134.146C197.055 134.38 198.532 133.806 199.439 132.657Z" fill="#FDB527"/>
<path d="M168.847 125.511C168.614 126.894 167.327 127.83 165.977 127.596C164.606 127.362 163.677 126.064 163.909 124.703C164.141 123.321 165.429 122.385 166.779 122.619C168.15 122.832 169.079 124.129 168.847 125.511Z" fill="#EF8216"/>
<path d="M292.16 211.03L317.711 165.984C319.694 162.474 324.632 159.157 328.324 158.88C336.848 158.285 344.591 159.369 351.048 162.219C357.884 165.239 363.096 170.195 366.261 176.894C367.716 179.999 364.087 185.146 358.728 187.762L299.038 216.921C292.708 220.005 288.974 216.645 292.16 211.03Z" fill="#FDB527"/>
<path d="M318.238 165.154C315.706 165.154 314.63 162.729 317.352 160.326C320.284 157.731 324.589 157.199 327.437 157.072C336.721 156.625 345.414 158.284 352.63 161.432C360.352 164.792 366.302 170.364 369.995 177.936C370.881 179.765 370.205 182.211 368.496 184.593C366.112 187.868 360.943 189.251 359.36 187.166C354.128 180.254 339.316 165.09 318.238 165.154Z" fill="#EF8216"/>
<path d="M340.202 178.68C344.823 178.127 347.017 181.083 344.95 185.337C342.861 189.675 337.248 193.589 332.543 193.993C327.922 194.397 326.045 191.249 328.218 187.059C330.349 182.933 335.666 179.211 340.202 178.68Z" fill="#FF5C5B"/>
<path d="M325.475 173.831C329.083 173.342 330.623 175.639 328.851 178.999C327.057 182.424 322.563 185.55 318.913 185.954C315.326 186.358 313.955 183.934 315.811 180.595C317.626 177.319 321.909 174.299 325.475 173.831Z" fill="#FF5C5B"/>
<path d="M312.92 191.653C316.929 191.271 318.512 194.142 316.402 198.14C314.228 202.202 309.122 205.775 305.071 206.052C301.105 206.328 299.733 203.287 301.949 199.331C304.122 195.46 308.996 192.036 312.92 191.653Z" fill="#FF5C5B"/>
<path d="M319.504 199.715C316.149 197.269 320.833 192.569 321.803 189.081C321.782 189.102 328.872 191.102 319.504 199.715Z" fill="#228520"/>
<path d="M337.712 174.725C336.995 178.085 332.859 179.659 330.348 181.998C330.348 181.998 330.201 177.192 337.712 174.725Z" fill="#228520"/>
<path d="M307.456 187.847C311.655 185.741 312.034 188.315 314.144 188.719C314.165 188.74 307.498 193.036 307.456 187.847Z" fill="#228520"/>
<path d="M295.536 209.05C299.861 206.923 300.135 209.837 302.266 210.433C302.266 210.433 295.346 214.878 295.536 209.05Z" fill="#228520"/>
<path d="M324.738 168.621C323.598 173.045 318.176 175.172 314.758 178.319C314.758 178.298 314.927 171.981 324.738 168.621Z" fill="#228520"/>
<path d="M329.062 187.825C329.842 185.613 328.387 184.337 325.812 184.932C323.281 185.528 320.58 187.782 319.757 189.952L318.617 190.207C319.651 187.485 323.006 184.699 326.171 183.933C329.357 183.167 331.214 184.762 330.243 187.527L329.062 187.825Z" fill="#BBDFFD"/>
<path d="M321.023 177.658C321.888 179.19 324.926 178.871 327.774 176.914C330.644 174.957 332.184 172.15 331.235 170.661L332.501 169.789C333.703 171.639 331.783 175.17 328.175 177.616C324.588 180.062 320.812 180.466 319.736 178.53L321.023 177.658Z" fill="#BBDFFD"/>
<path d="M311.149 190.059C308.216 191.761 306.085 194.696 306.423 196.674C306.76 198.694 309.482 198.949 312.52 197.205L312.689 198.12C308.891 200.289 305.494 199.949 305.072 197.418C304.671 194.951 307.309 191.272 310.98 189.166L311.149 190.059Z" fill="#BBDFFD"/>
<path d="M8.53522 253.122C18.262 259.247 32.0188 254.1 38.5597 244.593C45.1005 235.086 45.8811 222.708 44.7629 211.181C44.3409 206.842 43.6446 202.376 41.3025 198.696C38.9605 195.017 34.6141 192.337 30.3731 193.188C23.9167 194.507 21.4059 203.163 23.7479 209.394C27.1449 218.391 38.4331 223.431 47.337 219.922C57.4014 215.945 61.7901 204.226 64.4064 193.656C67.0227 183.086 69.7024 171.324 78.5641 165.093" stroke="#4285F4" stroke-width="0.75" stroke-miterlimit="10" stroke-dasharray="3 3"/>
<path d="M107.216 160.627L282.066 159.563C282.657 159.563 283.121 160.031 283.121 160.627C283.121 161.222 282.657 161.69 282.066 161.69C282.066 161.69 282.066 161.69 282.045 161.69L107.216 160.627Z" fill="#EA4335"/>
<path d="M223.621 198.123L282.067 197.059C282.657 197.038 283.121 197.506 283.143 198.101C283.164 198.697 282.7 199.165 282.109 199.186C282.088 199.186 282.088 199.186 282.067 199.186L223.621 198.123Z" fill="#EA4335"/>
<path d="M92.9953 175.025L264.449 173.961C265.04 173.961 265.504 174.429 265.504 175.025C265.504 175.62 265.04 176.088 264.449 176.088H264.428L92.9953 175.025Z" fill="#EA4335"/>
<path d="M168.088 170.219L296.984 169.155C297.575 169.155 298.039 169.623 298.039 170.219C298.039 170.814 297.575 171.282 296.984 171.282H296.963L168.088 170.219Z" fill="#EA4335"/>
</svg>
